<svg width="20.000000" height="21.000000" viewBox="0 0 20 21" fill="none" xmlns="http://www.w3.org/2000/svg" xmlns:xlink="http://www.w3.org/1999/xlink">
	<desc>
			Created with Pixso.
	</desc>
	<defs/>
	<path id="Vector" d="M0.5 4.5L18.5 4.5M7.25 9L7.25 15.75M11.75 9L11.75 15.75M1.62 4.5L2.75 18C2.75 18.59 2.98 19.16 3.4 19.59C3.83 20.01 4.4 20.25 5 20.25L14 20.25C14.59 20.25 15.16 20.01 15.59 19.59C16.01 19.16 16.25 18.59 16.25 18L17.37 4.5M6.12 4.5L6.12 1.12C6.12 0.82 6.24 0.54 6.45 0.32C6.66 0.11 6.95 0 7.25 0L11.75 0C12.04 0 12.33 0.11 12.54 0.32C12.75 0.54 12.87 0.82 12.87 1.12L12.87 4.5" stroke="#C6C6C6" stroke-opacity="1.000000" stroke-width="1.500000" stroke-linejoin="round"/>
</svg>
