<svg width="19.000000" height="17.000000" viewBox="0 0 19 17" fill="none" xmlns="http://www.w3.org/2000/svg" xmlns:xlink="http://www.w3.org/1999/xlink">
	<desc>
			Created with Pixso.
	</desc>
	<defs/>
	<path id="Vector" d="M15.5 3.97C16.29 3.97 17.05 4.29 17.62 4.85C18.18 5.41 18.5 6.18 18.5 6.97C18.5 7.77 18.18 8.53 17.62 9.09C17.05 9.66 16.29 9.97 15.5 9.97M7.5 3.97L7.5 14.97C7.5 15.24 7.39 15.49 7.2 15.68C7.01 15.87 6.76 15.97 6.5 15.97L5.5 15.97C5.23 15.97 4.98 15.87 4.79 15.68C4.6 15.49 4.5 15.24 4.5 14.97L4.5 9.97M14.02 0.2C14.15 0.09 14.31 0.02 14.48 0C14.65 -0.02 14.82 0.01 14.98 0.08C15.13 0.15 15.26 0.27 15.35 0.41C15.45 0.56 15.5 0.72 15.5 0.9L15.5 13.05C15.5 13.22 15.45 13.39 15.35 13.53C15.26 13.68 15.13 13.79 14.98 13.87C14.82 13.94 14.65 13.97 14.48 13.94C14.31 13.92 14.15 13.85 14.02 13.74L9.5 9.97L1.5 9.97C1.23 9.97 0.98 9.87 0.79 9.68C0.6 9.49 0.5 9.24 0.5 8.97L0.5 4.97C0.5 4.71 0.6 4.45 0.79 4.27C0.98 4.08 1.23 3.97 1.5 3.97L9.5 3.97L14.02 0.2Z" stroke="#272727" stroke-opacity="1.000000" stroke-width="1.000000" stroke-linejoin="round"/>
</svg>
