<svg width="20.000000" height="19.000000" viewBox="0 0 20 19" fill="none" xmlns="http://www.w3.org/2000/svg" xmlns:xlink="http://www.w3.org/1999/xlink">
	<desc>
			Created with Pixso.
	</desc>
	<defs/>
	<path id="Vector" d="M0.5 9L9.5 0L18.5 9L16.5 9L16.5 16C16.5 16.53 16.28 17.03 15.91 17.41C15.53 17.78 15.03 18 14.5 18L4.5 18C3.96 18 3.46 17.78 3.08 17.41C2.71 17.03 2.5 16.53 2.5 16L2.5 9L0.5 9ZM6.5 18L6.5 12C6.5 11.46 6.71 10.96 7.08 10.58C7.46 10.21 7.96 10 8.5 10L10.5 10C11.03 10 11.53 10.21 11.91 10.58C12.28 10.96 12.5 11.46 12.5 12L12.5 18" stroke="#008549" stroke-opacity="1.000000" stroke-width="1.000000" stroke-linejoin="round" stroke-linecap="round"/>
</svg>
