<svg width="114.000000" height="42.000000" viewBox="0 0 114 42" fill="none" xmlns="http://www.w3.org/2000/svg" xmlns:xlink="http://www.w3.org/1999/xlink">
	<desc>
			Created with Pixso.
	</desc>
	<defs/>
	<path id="Vector" d="M43.5 35.14L43.5 20.32L46.3 20.32L46.3 32.89L50 32.89L50 20.32L52.8 20.32L52.8 32.89L53.69 32.89L53.69 38.13L51.09 38.13L51.09 35.14L43.5 35.14Z" fill="#008549" fill-opacity="1.000000" fill-rule="nonzero"/>
	<path id="Vector" d="M55.26 35.14L55.26 20.32L57.86 20.32L57.86 25.86C57.86 28.28 57.74 30.02 57.51 31.1L57.54 31.1L61.63 20.32L64.66 20.32L64.66 35.14L62.06 35.14L62.06 29.52C62.06 27.15 62.18 25.46 62.4 24.39L62.38 24.39L58.28 35.14L55.26 35.14Z" fill="#008549" fill-opacity="1.000000" fill-rule="nonzero"/>
	<path id="Vector" d="M66.3 27.68C66.3 26.76 66.45 25.91 66.72 25.16C66.99 24.41 67.37 23.81 67.84 23.36C68.31 22.91 68.81 22.56 69.38 22.34C69.95 22.12 70.52 21.99 71.14 21.99L71.96 21.99L71.96 20.32L74.76 20.32L74.76 21.99L75.58 21.99C76.2 21.99 76.8 22.12 77.34 22.34C77.91 22.56 78.41 22.91 78.88 23.36C79.35 23.81 79.7 24.41 79.97 25.16C80.24 25.91 80.39 26.76 80.39 27.68C80.39 28.65 80.27 29.5 80 30.22C79.72 30.97 79.35 31.54 78.9 31.99C78.43 32.42 77.94 32.74 77.37 32.97C76.82 33.19 76.22 33.29 75.6 33.29L74.79 33.29L74.79 35.11L71.98 35.11L71.98 33.29L71.16 33.29C70.54 33.29 69.95 33.19 69.4 32.97C68.85 32.74 68.33 32.42 67.86 31.99C67.39 31.57 67.02 30.97 66.75 30.22C66.42 29.5 66.3 28.65 66.3 27.68ZM69.15 27.68C69.15 28.78 69.33 29.62 69.7 30.22C70.07 30.82 70.59 31.12 71.26 31.12L71.93 31.12L71.93 24.19L71.26 24.19C70.59 24.19 70.1 24.51 69.7 25.16C69.35 25.78 69.15 26.63 69.15 27.68ZM74.74 31.12L75.38 31.12C76.05 31.12 76.6 30.82 76.94 30.22C77.32 29.62 77.49 28.78 77.49 27.68C77.49 26.63 77.29 25.78 76.92 25.13C76.55 24.49 76.03 24.16 75.38 24.16L74.74 24.16L74.74 31.12Z" fill="#008549" fill-opacity="1.000000" fill-rule="nonzero"/>
	<path id="Vector" d="M82.08 35.14L82.08 20.32L87.37 20.32C88.14 20.32 88.83 20.52 89.43 20.89C90.02 21.29 90.47 21.82 90.79 22.46C91.09 23.11 91.26 23.84 91.26 24.63C91.26 25.46 91.11 26.21 90.79 26.88C90.47 27.55 90.02 28.1 89.43 28.5C88.83 28.9 88.14 29.1 87.37 29.1L84.91 29.1L84.91 35.14L82.08 35.14ZM84.88 26.9L86.3 26.9C86.99 26.9 87.51 26.71 87.86 26.33C88.21 25.96 88.38 25.41 88.38 24.68C88.38 23.99 88.21 23.44 87.86 23.06C87.51 22.69 86.99 22.51 86.3 22.51L84.88 22.51L84.88 26.9Z" fill="#008549" fill-opacity="1.000000" fill-rule="nonzero"/>
	<path id="Vector" d="M93.1 30.62L93.1 29.9L95.9 29.9L95.9 30.92C95.9 31.69 96.03 32.27 96.27 32.64C96.52 33.02 96.97 33.19 97.59 33.19C98.11 33.19 98.53 32.99 98.81 32.57C99.1 32.14 99.23 31.57 99.23 30.82L99.23 28.23L96.89 28.23L96.89 25.98L99.23 25.98L99.23 24.76C99.23 23.91 99.1 23.29 98.88 22.86C98.63 22.44 98.21 22.24 97.59 22.24C96.97 22.24 96.52 22.46 96.27 22.89C96.03 23.31 95.9 23.94 95.9 24.76L93.1 24.76L93.1 24.14C93.1 22.89 93.5 21.87 94.26 21.12C95.03 20.37 96.15 20 97.59 20C99.08 20 100.2 20.37 100.96 21.12C101.73 21.87 102.11 22.86 102.11 24.14L102.11 30.45C102.11 32.14 101.73 33.39 100.99 34.21C100.24 35.01 99.13 35.44 97.64 35.44C96.1 35.44 94.96 35.06 94.21 34.29C93.47 33.57 93.1 32.34 93.1 30.62Z" fill="#008549" fill-opacity="1.000000" fill-rule="nonzero"/>
	<path id="Vector" d="M104.02 35.14L104.02 20.32L106.82 20.32L106.82 26.73L110.22 20.32L113.37 20.32L109.65 26.73L113.5 35.14L110.37 35.14L107.94 29.22L106.82 30.7L106.82 35.14L104.02 35.14Z" fill="#008549" fill-opacity="1.000000" fill-rule="nonzero"/>
	<path id="Vector" d="M46.12 12.03L44.36 10.19L44.36 12.03L43.79 12.03L43.79 8.17L44.36 8.17L44.36 10.01L46.05 8.17L46.39 8.17L46.39 8.52L44.98 10.04L46.52 11.63L46.52 12.03L46.12 12.03Z" fill="#008549" fill-opacity="1.000000" fill-rule="nonzero"/>
	<path id="Vector" d="M49 9.79L47.09 13.33L46.74 13.33L46.74 12.95L47.51 11.61L46.52 9.81L46.52 9.46L46.86 9.46L47.76 11.13L48.65 9.46L48.97 9.46L48.97 9.79L49 9.79Z" fill="#008549" fill-opacity="1.000000" fill-rule="nonzero"/>
	<path id="Vector" d="M50.71 12.08C50.28 12.08 49.96 11.96 49.74 11.68C49.52 11.41 49.39 11.01 49.39 10.51L49.39 10.06C49.39 9.79 49.42 9.56 49.44 9.37C49.49 9.17 49.54 8.99 49.64 8.82C49.74 8.64 49.89 8.52 50.06 8.42C50.23 8.32 50.48 8.24 50.76 8.22L51.05 8.19C51.23 8.17 51.35 8.14 51.4 8.07L51.47 8L51.8 8L51.8 8.32C51.75 8.42 51.65 8.47 51.55 8.52C51.45 8.57 51.28 8.59 51.05 8.62L50.71 8.67C50.33 8.72 50.09 8.84 49.96 9.04C49.84 9.24 49.76 9.56 49.76 10.01C49.84 9.84 49.96 9.69 50.11 9.56C50.28 9.46 50.48 9.39 50.68 9.39C51.05 9.39 51.35 9.51 51.57 9.79C51.8 10.04 51.92 10.36 51.92 10.74C51.92 11.11 51.8 11.43 51.57 11.68C51.35 11.93 51.1 12.08 50.71 12.08ZM50.11 11.38C50.26 11.56 50.43 11.63 50.68 11.63C50.93 11.63 51.13 11.56 51.25 11.38C51.4 11.21 51.45 10.98 51.45 10.74C51.45 10.49 51.37 10.26 51.25 10.09C51.1 9.91 50.93 9.84 50.68 9.84C50.43 9.84 50.23 9.91 50.09 10.09C49.94 10.26 49.89 10.46 49.89 10.74C49.91 11.01 49.99 11.21 50.11 11.38Z" fill="#008549" fill-opacity="1.000000" fill-rule="nonzero"/>
	<path id="Vector" d="M53.28 12.08C53.01 12.08 52.79 12.01 52.64 11.86C52.49 11.71 52.42 11.51 52.42 11.28C52.42 11.06 52.49 10.86 52.66 10.74C52.84 10.59 53.08 10.54 53.43 10.54C53.53 10.54 53.63 10.54 53.73 10.56C53.83 10.59 53.9 10.59 53.95 10.59L54.03 10.61L54.03 10.46C54.03 10.06 53.85 9.86 53.48 9.86C53.36 9.86 53.23 9.89 53.16 9.94C53.06 9.99 53.01 10.04 52.96 10.09L52.91 10.16L52.59 10.16L52.59 9.84L52.61 9.81C52.61 9.79 52.64 9.79 52.66 9.76C52.69 9.74 52.71 9.71 52.74 9.69C52.76 9.66 52.81 9.64 52.86 9.59C52.91 9.56 52.96 9.54 53.03 9.51C53.08 9.49 53.16 9.46 53.26 9.46C53.33 9.44 53.43 9.44 53.53 9.44C53.88 9.44 54.13 9.54 54.32 9.71C54.5 9.89 54.6 10.14 54.6 10.49L54.6 12.08L54.17 12.08L54.13 11.71C54.05 11.81 53.95 11.91 53.83 11.98C53.68 12.03 53.51 12.08 53.28 12.08ZM53.38 11.66C53.58 11.66 53.75 11.61 53.88 11.48C54 11.36 54.08 11.23 54.08 11.11L54.08 10.98C53.93 10.93 53.73 10.91 53.48 10.91C53.28 10.91 53.16 10.93 53.08 11.01C53.01 11.08 52.96 11.16 52.96 11.28C52.94 11.53 53.08 11.66 53.38 11.66Z" fill="#008549" fill-opacity="1.000000" fill-rule="nonzero"/>
	<path id="Vector" d="M55.81 12.03L55.29 12.03L55.29 9.46L55.81 9.46L55.81 10.49L57.05 10.49L57.05 9.46L57.57 9.46L57.57 12.03L57.05 12.03L57.05 10.91L55.81 10.91L55.81 12.03Z" fill="#008549" fill-opacity="1.000000" fill-rule="nonzero"/>
	<path id="Vector" d="M59.45 12.08C59.03 12.08 58.71 11.96 58.49 11.71C58.26 11.46 58.14 11.13 58.14 10.74C58.14 10.36 58.26 10.04 58.49 9.79C58.73 9.54 59.03 9.39 59.43 9.39C59.5 9.39 59.6 9.39 59.67 9.41C59.75 9.41 59.82 9.44 59.87 9.46C59.92 9.49 60 9.51 60.05 9.54C60.1 9.56 60.15 9.59 60.17 9.61C60.2 9.64 60.24 9.66 60.27 9.69C60.29 9.71 60.32 9.74 60.34 9.76C60.37 9.79 60.37 9.81 60.39 9.84C60.42 9.86 60.42 9.86 60.42 9.89L60.42 9.91L60.42 10.21L60.1 10.21C60.1 10.21 60.1 10.19 60.07 10.19C60.07 10.16 60.05 10.16 60.05 10.14C60.05 10.11 60.02 10.09 60 10.09C59.97 10.06 59.95 10.04 59.95 10.04C59.92 10.01 59.9 9.99 59.87 9.99C59.85 9.96 59.8 9.96 59.77 9.94C59.72 9.91 59.7 9.91 59.65 9.91C59.6 9.91 59.55 9.89 59.48 9.89C59.23 9.89 59.03 9.96 58.88 10.14C58.76 10.31 58.68 10.51 58.68 10.79C58.68 11.06 58.76 11.26 58.88 11.43C59.01 11.61 59.2 11.68 59.48 11.68C59.58 11.68 59.67 11.66 59.75 11.63C59.82 11.61 59.9 11.58 59.95 11.53C60 11.51 60.02 11.46 60.05 11.43C60.07 11.38 60.1 11.36 60.1 11.33C60.1 11.31 60.12 11.31 60.12 11.28L60.44 11.28L60.44 11.61C60.44 11.61 60.44 11.63 60.42 11.66C60.39 11.68 60.37 11.73 60.32 11.78C60.27 11.83 60.22 11.88 60.15 11.93C60.07 11.98 59.97 12.01 59.85 12.06C59.72 12.08 59.6 12.08 59.45 12.08Z" fill="#008549" fill-opacity="1.000000" fill-rule="nonzero"/>
	<path id="Vector" d="M61.56 12.03L61.04 12.03L61.04 9.46L61.56 9.46L61.56 10.64L62.72 9.46L63.05 9.46L63.05 9.79L62.13 10.69L63.12 11.68L63.12 12.03L62.77 12.03L61.56 10.78L61.56 12.03Z" fill="#008549" fill-opacity="1.000000" fill-rule="nonzero"/>
	<path id="Vector" d="M64.16 12.03L63.69 12.03L63.69 9.46L64.21 9.46L64.21 11.28L65.55 9.46L66.02 9.46L66.02 12.03L65.5 12.03L65.5 10.21L64.16 12.03Z" fill="#008549" fill-opacity="1.000000" fill-rule="nonzero"/>
	<path id="Vector" d="M67.23 12.03L66.76 12.03L66.76 9.46L67.28 9.46L67.28 11.28L68.62 9.46L69.09 9.46L69.09 12.03L68.57 12.03L68.57 10.21L67.23 12.03ZM68.3 9.02C68.2 9.04 68.08 9.07 67.95 9.07C67.83 9.07 67.7 9.04 67.61 9.02C67.51 8.99 67.43 8.94 67.38 8.89C67.33 8.84 67.28 8.79 67.26 8.77C67.23 8.72 67.21 8.69 67.18 8.64L67.16 8.59L67.16 8.29L67.56 8.29L67.56 8.32C67.56 8.32 67.56 8.34 67.58 8.37C67.58 8.39 67.61 8.42 67.61 8.44C67.61 8.47 67.63 8.49 67.65 8.52C67.68 8.54 67.7 8.57 67.73 8.59C67.75 8.62 67.78 8.62 67.83 8.64C67.88 8.64 67.9 8.67 67.95 8.67C68.05 8.67 68.13 8.64 68.2 8.59C68.27 8.54 68.3 8.49 68.32 8.42L68.35 8.34L68.75 8.34L68.75 8.64C68.75 8.67 68.75 8.67 68.72 8.69C68.72 8.72 68.7 8.74 68.65 8.79C68.6 8.84 68.57 8.89 68.52 8.94C68.47 8.99 68.4 8.99 68.3 9.02Z" fill="#008549" fill-opacity="1.000000" fill-rule="nonzero"/>
	<path id="Vector" d="M71.64 12.03L71.12 12.03L71.12 9.46L72.86 9.46L72.86 9.91L71.62 9.91L71.62 12.03L71.64 12.03Z" fill="#008549" fill-opacity="1.000000" fill-rule="nonzero"/>
	<path id="Vector" d="M74.42 12.08C74.02 12.08 73.7 11.96 73.48 11.68C73.23 11.43 73.13 11.11 73.13 10.73C73.13 10.36 73.25 10.04 73.48 9.79C73.73 9.54 74.02 9.41 74.42 9.41C74.82 9.41 75.14 9.54 75.36 9.79C75.61 10.04 75.71 10.36 75.71 10.73C75.71 11.11 75.58 11.43 75.36 11.68C75.11 11.96 74.82 12.08 74.42 12.08ZM73.82 11.38C73.95 11.56 74.15 11.63 74.42 11.63C74.69 11.63 74.86 11.56 75.01 11.38C75.14 11.21 75.21 10.98 75.21 10.73C75.21 10.49 75.14 10.26 75.01 10.09C74.86 9.91 74.69 9.84 74.42 9.84C74.15 9.84 73.97 9.91 73.82 10.09C73.68 10.26 73.63 10.46 73.63 10.73C73.63 11.01 73.7 11.23 73.82 11.38Z" fill="#008549" fill-opacity="1.000000" fill-rule="nonzero"/>
	<path id="Vector" d="M77.47 12.08C77.05 12.08 76.72 11.96 76.5 11.71C76.28 11.46 76.15 11.13 76.15 10.74C76.15 10.36 76.28 10.04 76.5 9.79C76.75 9.54 77.05 9.39 77.44 9.39C77.52 9.39 77.62 9.39 77.69 9.41C77.76 9.41 77.84 9.44 77.89 9.46C77.94 9.49 78.01 9.51 78.06 9.54C78.11 9.56 78.16 9.59 78.19 9.61C78.21 9.64 78.26 9.66 78.28 9.69C78.31 9.71 78.33 9.74 78.36 9.76C78.38 9.79 78.38 9.81 78.41 9.84C78.43 9.86 78.43 9.86 78.43 9.89L78.43 9.91L78.43 10.21L78.11 10.21C78.11 10.21 78.11 10.19 78.09 10.19C78.09 10.16 78.06 10.16 78.06 10.14C78.06 10.11 78.04 10.09 78.01 10.09C77.99 10.06 77.96 10.04 77.96 10.04C77.94 10.01 77.91 9.99 77.89 9.99C77.86 9.96 77.81 9.96 77.79 9.94C77.74 9.91 77.71 9.91 77.66 9.91C77.62 9.91 77.57 9.89 77.49 9.89C77.24 9.89 77.05 9.96 76.9 10.14C76.77 10.31 76.7 10.51 76.7 10.79C76.7 11.06 76.77 11.26 76.9 11.43C77.02 11.61 77.22 11.68 77.49 11.68C77.59 11.68 77.69 11.66 77.76 11.63C77.84 11.61 77.91 11.58 77.96 11.53C78.01 11.51 78.04 11.46 78.06 11.43C78.09 11.38 78.11 11.36 78.11 11.33C78.11 11.31 78.14 11.31 78.14 11.28L78.46 11.28L78.46 11.61C78.46 11.61 78.46 11.63 78.43 11.66C78.41 11.68 78.38 11.73 78.33 11.78C78.28 11.83 78.23 11.88 78.16 11.93C78.09 11.98 77.99 12.01 77.86 12.06C77.74 12.08 77.62 12.08 77.47 12.08Z" fill="#008549" fill-opacity="1.000000" fill-rule="nonzero"/>
	<path id="Vector" d="M81.28 9.79L79.37 13.33L79 13.33L79 12.95L79.77 11.61L78.78 9.81L78.78 9.46L79.13 9.46L80.02 11.13L80.91 9.46L81.23 9.46L81.23 9.79L81.28 9.79Z" fill="#008549" fill-opacity="1.000000" fill-rule="nonzero"/>
	<path id="Vector" d="M81.75 12.75L81.28 12.75L81.28 11.61L81.55 11.61C81.68 11.51 81.78 11.21 81.8 10.69L81.9 9.44L83.81 9.44L83.81 11.61L84.23 11.61L84.23 12.75L83.76 12.75L83.76 12.03L81.75 12.03L81.75 12.75ZM82.08 11.63L83.29 11.63L83.29 9.89L82.32 9.89L82.25 10.81C82.25 11.16 82.17 11.43 82.08 11.63Z" fill="#008549" fill-opacity="1.000000" fill-rule="nonzero"/>
	<path id="Vector" d="M85.45 12.08C85.17 12.08 84.95 12.01 84.8 11.86C84.65 11.71 84.58 11.51 84.58 11.28C84.58 11.06 84.65 10.86 84.83 10.74C85 10.59 85.25 10.54 85.59 10.54C85.69 10.54 85.79 10.54 85.89 10.56C85.99 10.59 86.06 10.59 86.11 10.59L86.19 10.61L86.19 10.46C86.19 10.06 86.02 9.86 85.64 9.86C85.52 9.86 85.4 9.89 85.32 9.94C85.22 9.99 85.17 10.04 85.12 10.09L85.07 10.16L84.75 10.16L84.75 9.84L84.78 9.81C84.78 9.79 84.8 9.79 84.83 9.76C84.85 9.74 84.88 9.71 84.9 9.69C84.92 9.66 84.97 9.64 85.02 9.59C85.07 9.56 85.12 9.54 85.2 9.51C85.25 9.49 85.32 9.46 85.42 9.46C85.49 9.44 85.59 9.44 85.69 9.44C86.04 9.44 86.29 9.54 86.49 9.71C86.66 9.89 86.76 10.14 86.76 10.49L86.76 12.08L86.34 12.08L86.29 11.71C86.21 11.81 86.11 11.91 85.99 11.98C85.82 12.03 85.64 12.08 85.45 12.08ZM85.52 11.66C85.72 11.66 85.89 11.61 86.02 11.48C86.14 11.36 86.21 11.23 86.21 11.11L86.21 10.98C86.06 10.93 85.87 10.91 85.62 10.91C85.42 10.91 85.3 10.93 85.22 11.01C85.15 11.08 85.1 11.16 85.1 11.28C85.07 11.53 85.22 11.66 85.52 11.66Z" fill="#008549" fill-opacity="1.000000" fill-rule="nonzero"/>
	<path id="Vector" d="M87.95 13.33L87.43 13.33L87.43 9.46L87.9 9.46L87.95 9.86C88.15 9.56 88.44 9.41 88.84 9.41C89.21 9.41 89.51 9.54 89.71 9.79C89.93 10.04 90.03 10.36 90.03 10.73C90.03 11.11 89.93 11.43 89.71 11.68C89.48 11.93 89.19 12.08 88.84 12.08C88.44 12.08 88.15 11.93 87.95 11.63L87.95 13.33ZM88.74 11.66C88.99 11.66 89.19 11.58 89.34 11.41C89.46 11.23 89.53 11.01 89.53 10.76C89.53 10.51 89.46 10.29 89.34 10.11C89.21 9.94 89.01 9.86 88.74 9.86C88.49 9.86 88.32 9.94 88.17 10.11C88.02 10.29 87.95 10.49 87.95 10.76C87.95 11.01 88.02 11.23 88.17 11.41C88.32 11.56 88.49 11.66 88.74 11.66Z" fill="#008549" fill-opacity="1.000000" fill-rule="nonzero"/>
	<path id="Vector" d="M91.79 12.08C91.37 12.08 91.05 11.96 90.82 11.71C90.6 11.46 90.48 11.13 90.48 10.74C90.48 10.36 90.6 10.04 90.82 9.79C91.07 9.54 91.37 9.39 91.76 9.39C91.84 9.39 91.94 9.39 92.01 9.41C92.09 9.41 92.16 9.44 92.21 9.46C92.26 9.49 92.33 9.51 92.38 9.54C92.43 9.56 92.48 9.59 92.51 9.61C92.53 9.64 92.58 9.66 92.61 9.69C92.63 9.71 92.66 9.74 92.68 9.76C92.71 9.79 92.71 9.81 92.73 9.84C92.76 9.86 92.76 9.86 92.76 9.89L92.76 9.91L92.76 10.21L92.43 10.21C92.43 10.21 92.43 10.19 92.41 10.19C92.41 10.16 92.38 10.16 92.38 10.14C92.38 10.11 92.36 10.09 92.33 10.09C92.31 10.06 92.28 10.04 92.28 10.04C92.28 10.04 92.24 9.99 92.21 9.99C92.19 9.96 92.14 9.96 92.11 9.94C92.06 9.91 92.04 9.91 91.99 9.91C91.94 9.91 91.89 9.89 91.81 9.89C91.57 9.89 91.37 9.96 91.22 10.14C91.1 10.31 91.02 10.51 91.02 10.79C91.02 11.06 91.1 11.26 91.22 11.43C91.34 11.61 91.54 11.68 91.81 11.68C91.91 11.68 92.01 11.66 92.09 11.63C92.16 11.61 92.24 11.58 92.28 11.53C92.33 11.51 92.36 11.46 92.38 11.43C92.41 11.38 92.43 11.36 92.43 11.33C92.43 11.31 92.46 11.31 92.46 11.28L92.78 11.28L92.78 11.61C92.78 11.61 92.78 11.63 92.76 11.66C92.73 11.68 92.71 11.73 92.66 11.78C92.61 11.83 92.56 11.88 92.48 11.93C92.41 11.98 92.31 12.01 92.19 12.06C92.09 12.08 91.94 12.08 91.79 12.08Z" fill="#008549" fill-opacity="1.000000" fill-rule="nonzero"/>
	<path id="Vector" d="M94.44 12.03L93.92 12.03L93.92 9.89L93.1 9.89L93.1 9.46L95.26 9.46L95.26 9.91L94.44 9.91L94.44 12.03Z" fill="#008549" fill-opacity="1.000000" fill-rule="nonzero"/>
	<path id="Vector" d="M96.94 12.03L95.75 12.03L95.75 9.46L96.89 9.46C97.17 9.46 97.39 9.51 97.56 9.64C97.74 9.76 97.81 9.91 97.81 10.14C97.81 10.39 97.69 10.59 97.41 10.69C97.56 10.74 97.69 10.81 97.76 10.91C97.83 11.01 97.88 11.13 97.88 11.28C97.88 11.53 97.79 11.73 97.61 11.86C97.44 11.98 97.22 12.03 96.94 12.03ZM96.25 9.86L96.25 10.49L96.87 10.49C97.12 10.49 97.24 10.39 97.24 10.16C97.24 9.96 97.12 9.86 96.87 9.86L96.25 9.86ZM96.25 10.91L96.25 11.63L96.89 11.63C97.19 11.63 97.36 11.51 97.36 11.28C97.36 11.03 97.22 10.91 96.89 10.91L96.25 10.91Z" fill="#008549" fill-opacity="1.000000" fill-rule="nonzero"/>
	<path id="Vector" d="M99.67 12.08C99.25 12.08 98.93 11.96 98.68 11.71C98.45 11.46 98.33 11.13 98.33 10.73C98.33 10.36 98.45 10.04 98.68 9.79C98.9 9.54 99.22 9.41 99.62 9.41C100.02 9.41 100.31 9.51 100.51 9.71C100.71 9.91 100.81 10.19 100.81 10.54L100.78 10.81L98.88 10.81C98.9 11.06 98.97 11.26 99.1 11.41C99.25 11.56 99.45 11.63 99.69 11.63C99.79 11.63 99.89 11.63 99.99 11.61C100.09 11.58 100.14 11.56 100.19 11.53C100.24 11.51 100.29 11.48 100.31 11.43C100.34 11.41 100.36 11.38 100.39 11.36L100.41 11.33L100.73 11.33L100.73 11.66C100.61 11.83 100.41 11.96 100.12 12.03C99.99 12.08 99.84 12.08 99.67 12.08ZM98.88 10.44L100.29 10.44C100.29 10.26 100.24 10.11 100.12 10.01C99.99 9.91 99.84 9.84 99.62 9.84C99.2 9.84 98.97 10.04 98.88 10.44Z" fill="#008549" fill-opacity="1.000000" fill-rule="nonzero"/>
	<path id="Vector" d="M101.9 12.03L101.38 12.03L101.38 9.46L101.9 9.46L101.9 10.49L103.14 10.49L103.14 9.46L103.66 9.46L103.66 12.03L103.14 12.03L103.14 10.91L101.9 10.91L101.9 12.03Z" fill="#008549" fill-opacity="1.000000" fill-rule="nonzero"/>
	<path id="Vector" d="M104.92 12.03L104.4 12.03L104.4 9.46L104.92 9.46L104.92 10.49L106.16 10.49L106.16 9.46L106.68 9.46L106.68 12.03L106.16 12.03L106.16 10.91L104.92 10.91L104.92 12.03Z" fill="#008549" fill-opacity="1.000000" fill-rule="nonzero"/>
	<path id="Vector" d="M108.44 12.03L107.42 12.03L107.42 9.46L107.95 9.46L107.95 10.34L108.47 10.34C108.81 10.34 109.06 10.41 109.26 10.56C109.43 10.71 109.53 10.91 109.53 11.16C109.53 11.41 109.43 11.63 109.26 11.78C109.06 11.96 108.79 12.03 108.44 12.03ZM107.95 10.74L107.95 11.61L108.42 11.61C108.79 11.61 108.96 11.46 108.96 11.16C108.96 10.88 108.79 10.74 108.42 10.74L107.95 10.74ZM110.4 12.03L109.88 12.03L109.88 9.46L110.4 9.46L110.4 12.03Z" fill="#008549" fill-opacity="1.000000" fill-rule="nonzero"/>
	<path id="Vector" d="M111.64 12.03L111.17 12.03L111.17 9.46L111.69 9.46L111.69 11.28L113.02 9.46L113.5 9.46L113.5 12.03L112.95 12.03L112.95 10.21L111.64 12.03ZM112.7 9.02C112.6 9.04 112.48 9.07 112.36 9.07C112.23 9.07 112.11 9.04 112.01 9.02C111.91 8.99 111.84 8.94 111.79 8.89C111.74 8.84 111.69 8.79 111.66 8.77C111.64 8.72 111.61 8.69 111.59 8.64L111.56 8.59L111.56 8.29L111.96 8.29L111.96 8.32C111.96 8.32 111.96 8.34 111.98 8.37C111.98 8.39 112.01 8.42 112.01 8.44C112.01 8.47 112.03 8.49 112.06 8.52C112.08 8.54 112.11 8.57 112.13 8.59C112.16 8.62 112.18 8.62 112.23 8.64C112.28 8.64 112.31 8.67 112.36 8.67C112.45 8.67 112.53 8.64 112.6 8.59C112.68 8.54 112.7 8.49 112.73 8.42L112.75 8.34L113.15 8.34L113.15 8.64C113.15 8.67 113.15 8.67 113.12 8.69C113.12 8.72 113.1 8.74 113.05 8.79C113 8.84 112.97 8.89 112.93 8.94C112.88 8.97 112.8 8.99 112.7 9.02Z" fill="#008549" fill-opacity="1.000000" fill-rule="nonzero"/>
	<path id="Vector" d="M44.36 16.64C44.09 16.64 43.87 16.56 43.72 16.41C43.57 16.27 43.5 16.07 43.5 15.84C43.5 15.62 43.57 15.42 43.74 15.29C43.92 15.14 44.16 15.09 44.51 15.09C44.61 15.09 44.71 15.09 44.81 15.12C44.91 15.14 44.98 15.14 45.03 15.14L45.11 15.17L45.11 15.02C45.11 14.62 44.93 14.42 44.56 14.42C44.44 14.42 44.31 14.45 44.24 14.5C44.14 14.55 44.09 14.6 44.04 14.65L43.99 14.72L43.67 14.72L43.67 14.4L43.69 14.37C43.69 14.35 43.72 14.35 43.74 14.32C43.77 14.3 43.79 14.27 43.82 14.25C43.84 14.22 43.89 14.2 43.94 14.15C43.99 14.12 44.04 14.1 44.11 14.07C44.19 14.05 44.24 14.02 44.34 14.02C44.41 14 44.51 14 44.61 14C44.96 14 45.2 14.1 45.4 14.27C45.58 14.45 45.68 14.7 45.68 15.04L45.68 16.64L45.25 16.64L45.2 16.27C45.13 16.36 45.03 16.46 44.91 16.54C44.73 16.59 44.56 16.64 44.36 16.64ZM44.44 16.22C44.63 16.22 44.81 16.17 44.93 16.04C45.06 15.92 45.13 15.79 45.13 15.67L45.13 15.54C44.98 15.49 44.78 15.47 44.54 15.47C44.34 15.47 44.21 15.49 44.14 15.57C44.06 15.64 44.02 15.72 44.02 15.84C43.99 16.09 44.14 16.22 44.44 16.22Z" fill="#008549" fill-opacity="1.000000" fill-rule="nonzero"/>
	<path id="Vector" d="M46.87 16.59L46.34 16.59L46.34 14.02L48.08 14.02L48.08 14.45L46.84 14.45L46.84 16.59L46.87 16.59Z" fill="#008549" fill-opacity="1.000000" fill-rule="nonzero"/>
	<path id="Vector" d="M49.1 17.88L48.57 17.88L48.57 14.02L49.05 14.02L49.1 14.42C49.29 14.12 49.59 13.97 49.99 13.97C50.36 13.97 50.66 14.1 50.85 14.35C51.08 14.6 51.18 14.92 51.18 15.29C51.18 15.67 51.08 15.99 50.85 16.24C50.63 16.49 50.33 16.64 49.99 16.64C49.59 16.64 49.29 16.49 49.1 16.19L49.1 17.88ZM49.89 16.22C50.14 16.22 50.33 16.14 50.48 15.97C50.61 15.79 50.68 15.57 50.68 15.32C50.68 15.07 50.61 14.85 50.48 14.67C50.36 14.5 50.16 14.42 49.89 14.42C49.64 14.42 49.47 14.5 49.32 14.67C49.17 14.85 49.1 15.04 49.1 15.32C49.1 15.57 49.17 15.79 49.32 15.97C49.44 16.12 49.64 16.22 49.89 16.22Z" fill="#008549" fill-opacity="1.000000" fill-rule="nonzero"/>
	<path id="Vector" d="M52.46 16.64C52.19 16.64 51.97 16.56 51.82 16.41C51.67 16.27 51.6 16.07 51.6 15.84C51.6 15.62 51.67 15.42 51.84 15.29C52.02 15.14 52.27 15.09 52.61 15.09C52.71 15.09 52.81 15.09 52.91 15.12C53.01 15.14 53.08 15.14 53.13 15.14L53.21 15.17L53.21 15.02C53.21 14.62 53.03 14.42 52.66 14.42C52.54 14.42 52.41 14.45 52.34 14.5C52.24 14.55 52.19 14.6 52.14 14.65L52.09 14.72L51.77 14.72L51.77 14.4L51.8 14.37C51.8 14.35 51.82 14.35 51.84 14.32C51.87 14.3 51.89 14.27 51.92 14.25C51.94 14.22 51.99 14.2 52.04 14.15C52.09 14.12 52.14 14.1 52.22 14.07C52.29 14.05 52.34 14.02 52.44 14.02C52.51 14 52.61 14 52.71 14C53.06 14 53.31 14.1 53.51 14.27C53.68 14.45 53.78 14.7 53.78 15.04L53.78 16.64L53.36 16.64L53.31 16.27C53.23 16.36 53.13 16.46 53.01 16.54C52.86 16.59 52.69 16.64 52.46 16.64ZM52.56 16.22C52.76 16.22 52.94 16.17 53.06 16.04C53.18 15.92 53.26 15.79 53.26 15.67L53.26 15.54C53.11 15.49 52.91 15.47 52.66 15.47C52.46 15.47 52.34 15.49 52.27 15.57C52.19 15.64 52.14 15.72 52.14 15.84C52.12 16.09 52.27 16.22 52.56 16.22Z" fill="#008549" fill-opacity="1.000000" fill-rule="nonzero"/>
	<path id="Vector" d="M54.99 17.88L54.47 17.88L54.47 14.02L54.94 14.02L54.99 14.42C55.19 14.12 55.49 13.97 55.88 13.97C56.26 13.97 56.55 14.1 56.75 14.35C56.98 14.6 57.07 14.92 57.07 15.29C57.07 15.67 56.98 15.99 56.75 16.24C56.53 16.49 56.23 16.64 55.88 16.64C55.49 16.64 55.19 16.49 54.99 16.19L54.99 17.88ZM55.79 16.22C56.03 16.22 56.23 16.14 56.38 15.97C56.5 15.79 56.58 15.57 56.58 15.32C56.58 15.07 56.5 14.85 56.38 14.67C56.26 14.5 56.06 14.42 55.79 14.42C55.54 14.42 55.36 14.5 55.22 14.67C55.07 14.85 54.99 15.04 54.99 15.32C54.99 15.57 55.07 15.79 55.22 15.97C55.34 16.12 55.54 16.22 55.79 16.22Z" fill="#008549" fill-opacity="1.000000" fill-rule="nonzero"/>
	<path id="Vector" d="M58.19 16.59L57.69 16.59L57.69 14.02L58.21 14.02L58.21 15.04L59.45 15.04L59.45 14.02L59.97 14.02L59.97 16.59L59.43 16.59L59.43 15.47L58.19 15.47L58.19 16.59Z" fill="#008549" fill-opacity="1.000000" fill-rule="nonzero"/>
	<path id="Vector" d="M61.73 16.59L60.72 16.59L60.72 14.02L61.24 14.02L61.24 14.9L61.76 14.9C62.1 14.9 62.35 14.97 62.55 15.12C62.72 15.27 62.82 15.47 62.82 15.72C62.82 15.97 62.72 16.19 62.55 16.34C62.33 16.51 62.05 16.59 61.73 16.59ZM61.21 15.29L61.21 16.19L61.68 16.19C62.05 16.19 62.23 16.04 62.23 15.74C62.23 15.47 62.05 15.32 61.68 15.32L61.21 15.32L61.21 15.29ZM63.67 16.59L63.14 16.59L63.14 14.02L63.67 14.02L63.67 16.59Z" fill="#008549" fill-opacity="1.000000" fill-rule="nonzero"/>
	<path id="Vector" d="M64.9 16.59L64.43 16.59L64.43 14.02L64.95 14.02L64.95 15.84L66.29 14.02L66.76 14.02L66.76 16.59L66.24 16.59L66.24 14.77L64.9 16.59ZM65.97 13.57C65.87 13.6 65.75 13.62 65.62 13.62C65.5 13.62 65.37 13.6 65.28 13.57C65.18 13.55 65.1 13.5 65.05 13.45C65 13.4 64.95 13.35 64.93 13.33C64.9 13.28 64.88 13.25 64.85 13.2L64.83 13.15L64.83 12.85L65.23 12.85L65.23 12.88C65.23 12.88 65.23 12.9 65.25 12.93C65.28 12.95 65.28 12.98 65.28 13C65.28 13.03 65.3 13.05 65.33 13.08C65.35 13.1 65.37 13.13 65.4 13.15C65.42 13.18 65.45 13.18 65.5 13.2C65.55 13.2 65.57 13.23 65.62 13.23C65.72 13.23 65.8 13.2 65.87 13.15C65.94 13.1 65.97 13.05 65.99 12.98L66.02 12.9L66.42 12.9L66.42 13.2C66.42 13.23 66.42 13.23 66.39 13.25C66.39 13.28 66.37 13.3 66.32 13.35C66.27 13.4 66.24 13.45 66.19 13.5C66.14 13.53 66.07 13.55 65.97 13.57Z" fill="#008549" fill-opacity="1.000000" fill-rule="nonzero"/>
	<path id="Vector" d="M70.93 14.35L69.02 17.88L68.67 17.88L68.67 17.54L69.44 16.19L68.45 14.4L68.45 14.05L68.79 14.05L69.69 15.72L70.58 14.05L70.9 14.05L70.9 14.35L70.93 14.35Z" fill="#008549" fill-opacity="1.000000" fill-rule="nonzero"/>
	<path id="Vector" d="M71.92 16.59L71.4 16.59L71.4 14.02L71.92 14.02L71.92 15.04L73.15 15.04L73.15 14.02L73.68 14.02L73.68 16.59L73.15 16.59L73.15 15.47L71.92 15.47L71.92 16.59Z" fill="#008549" fill-opacity="1.000000" fill-rule="nonzero"/>
	<path id="Vector" d="M74.86 16.59L74.39 16.59L74.39 14.02L74.91 14.02L74.91 15.84L76.25 14.02L76.72 14.02L76.72 16.59L76.2 16.59L76.2 14.77L74.86 16.59Z" fill="#008549" fill-opacity="1.000000" fill-rule="nonzero"/>
	<path id="Vector" d="M78.68 16.59L77.49 16.59L77.49 14.02L78.63 14.02C78.9 14.02 79.13 14.07 79.3 14.2C79.47 14.32 79.55 14.47 79.55 14.7C79.55 14.95 79.42 15.14 79.15 15.24C79.3 15.29 79.42 15.37 79.5 15.47C79.57 15.57 79.62 15.69 79.62 15.84C79.62 16.09 79.52 16.29 79.35 16.41C79.18 16.54 78.98 16.59 78.68 16.59ZM77.99 14.42L77.99 15.04L78.61 15.04C78.85 15.04 78.98 14.95 78.98 14.72C78.98 14.52 78.85 14.42 78.61 14.42L77.99 14.42ZM77.99 15.47L77.99 16.19L78.63 16.19C78.93 16.19 79.1 16.07 79.1 15.84C79.1 15.59 78.95 15.47 78.63 15.47L77.99 15.47Z" fill="#008549" fill-opacity="1.000000" fill-rule="nonzero"/>
	<path id="Vector" d="M81.41 16.64C80.99 16.64 80.66 16.51 80.42 16.27C80.19 16.02 80.07 15.69 80.07 15.29C80.07 14.92 80.19 14.6 80.42 14.35C80.64 14.1 80.96 13.97 81.36 13.97C81.75 13.97 82.05 14.07 82.25 14.27C82.45 14.47 82.55 14.75 82.55 15.09L82.52 15.37L80.61 15.37C80.64 15.62 80.71 15.82 80.84 15.97C80.99 16.12 81.18 16.19 81.43 16.19C81.53 16.19 81.63 16.19 81.73 16.17C81.83 16.14 81.88 16.12 81.93 16.09C81.98 16.07 82.03 16.04 82.05 15.99C82.08 15.97 82.1 15.94 82.12 15.92L82.15 15.89L82.47 15.89L82.47 16.22C82.35 16.39 82.15 16.51 81.85 16.59C81.73 16.64 81.58 16.64 81.41 16.64ZM80.64 14.99L82.05 14.99C82.05 14.82 82 14.67 81.88 14.57C81.75 14.47 81.6 14.4 81.38 14.4C80.96 14.4 80.71 14.6 80.64 14.99Z" fill="#008549" fill-opacity="1.000000" fill-rule="nonzero"/>
	<path id="Vector" d="M83.66 17.88L83.14 17.88L83.14 14.02L83.61 14.02L83.66 14.42C83.86 14.12 84.16 13.97 84.55 13.97C84.92 13.97 85.22 14.1 85.42 14.35C85.64 14.6 85.74 14.92 85.74 15.29C85.74 15.67 85.64 15.99 85.42 16.24C85.2 16.49 84.9 16.64 84.55 16.64C84.16 16.64 83.86 16.49 83.66 16.19L83.66 17.88ZM84.45 16.22C84.7 16.22 84.9 16.14 85.05 15.97C85.17 15.79 85.25 15.57 85.25 15.32C85.25 15.07 85.17 14.85 85.05 14.67C84.92 14.5 84.73 14.42 84.45 14.42C84.21 14.42 84.03 14.5 83.88 14.67C83.74 14.85 83.66 15.04 83.66 15.32C83.66 15.57 83.74 15.79 83.88 15.97C84.01 16.12 84.21 16.22 84.45 16.22Z" fill="#008549" fill-opacity="1.000000" fill-rule="nonzero"/>
	<path id="Vector" d="M87.5 16.64C87.08 16.64 86.76 16.51 86.54 16.27C86.31 16.02 86.19 15.69 86.19 15.29C86.19 14.92 86.31 14.6 86.54 14.35C86.78 14.1 87.08 13.95 87.48 13.95C87.55 13.95 87.65 13.95 87.72 13.97C87.8 13.97 87.87 14 87.92 14.02C87.97 14.05 88.05 14.07 88.1 14.1C88.15 14.12 88.2 14.15 88.22 14.17C88.25 14.2 88.29 14.22 88.32 14.25C88.34 14.27 88.37 14.3 88.39 14.32C88.42 14.35 88.42 14.37 88.44 14.4C88.44 14.42 88.47 14.42 88.47 14.45L88.47 14.47L88.47 14.8L88.15 14.8C88.15 14.8 88.15 14.77 88.12 14.77C88.12 14.75 88.1 14.75 88.1 14.72C88.1 14.7 88.07 14.67 88.05 14.67C88.02 14.65 88 14.62 88 14.62C87.97 14.6 87.95 14.57 87.92 14.57C87.9 14.55 87.85 14.55 87.82 14.52C87.77 14.5 87.75 14.5 87.7 14.5C87.65 14.5 87.6 14.47 87.53 14.47C87.28 14.47 87.08 14.55 86.93 14.72C86.81 14.9 86.73 15.09 86.73 15.37C86.73 15.64 86.81 15.84 86.93 16.02C87.06 16.19 87.25 16.27 87.53 16.27C87.63 16.27 87.72 16.24 87.8 16.22C87.87 16.19 87.95 16.17 88 16.12C88.05 16.09 88.07 16.04 88.1 16.02C88.12 15.97 88.15 15.94 88.15 15.92C88.15 15.89 88.17 15.89 88.17 15.87L88.49 15.87L88.49 16.19C88.49 16.19 88.49 16.22 88.47 16.24C88.44 16.27 88.42 16.32 88.37 16.36C88.32 16.41 88.27 16.46 88.2 16.51C88.12 16.56 88.02 16.59 87.9 16.64C87.77 16.64 87.65 16.64 87.5 16.64Z" fill="#008549" fill-opacity="1.000000" fill-rule="nonzero"/>
	<path id="Vector" d="M89.56 16.59L89.09 16.59L89.09 14.02L89.61 14.02L89.61 15.84L90.95 14.02L91.42 14.02L91.42 16.59L90.9 16.59L90.9 14.77L89.56 16.59Z" fill="#008549" fill-opacity="1.000000" fill-rule="nonzero"/>
	<path id="Vector" d="M93.2 16.59L92.68 16.59L92.68 14.45L91.89 14.45L91.89 14L94.04 14L94.04 14.45L93.23 14.45L93.23 16.59L93.2 16.59Z" fill="#008549" fill-opacity="1.000000" fill-rule="nonzero"/>
	<path id="Vector" d="M95.6 16.64C95.18 16.64 94.86 16.51 94.61 16.27C94.39 16.02 94.27 15.69 94.27 15.29C94.27 14.92 94.39 14.6 94.61 14.35C94.84 14.1 95.16 13.97 95.56 13.97C95.95 13.97 96.25 14.07 96.45 14.27C96.65 14.47 96.74 14.75 96.74 15.09L96.72 15.37L94.81 15.37C94.84 15.62 94.91 15.82 95.03 15.97C95.18 16.12 95.38 16.19 95.63 16.19C95.73 16.19 95.83 16.19 95.93 16.17C96.03 16.14 96.08 16.12 96.13 16.09C96.17 16.07 96.22 16.04 96.25 15.99C96.27 15.97 96.3 15.94 96.32 15.92L96.35 15.89L96.67 15.89L96.67 16.22C96.55 16.39 96.35 16.51 96.05 16.59C95.93 16.64 95.78 16.64 95.6 16.64ZM94.81 14.99L96.22 14.99C96.22 14.82 96.17 14.67 96.05 14.57C95.93 14.47 95.78 14.4 95.56 14.4C95.13 14.4 94.91 14.6 94.81 14.99Z" fill="#008549" fill-opacity="1.000000" fill-rule="nonzero"/>
	<path id="Vector" d="M98.33 16.59L97.81 16.59L97.81 14.45L96.99 14.45L96.99 14L99.15 14L99.15 14.45L98.33 14.45L98.33 16.59Z" fill="#008549" fill-opacity="1.000000" fill-rule="nonzero"/>
	<path id="Vector" d="M9.53 11.56C9.26 10.6 8.35 9.87 7.24 9.87C5.93 9.87 4.88 10.88 4.88 12.16C4.88 13.44 5.93 14.45 7.24 14.45C8.35 14.45 9.23 13.72 9.53 12.76L15.42 12.76C15.53 12.34 15.66 11.93 15.8 11.54L9.53 11.54L9.53 11.56Z" fill="#83C7BA" fill-opacity="1.000000" fill-rule="nonzero"/>
	<path id="Vector" d="M5.9 18.23C5.74 17.11 4.77 16.25 3.56 16.25C2.24 16.25 1.19 17.27 1.19 18.54C1.19 19.82 2.24 20.84 3.56 20.84C4.53 20.84 5.39 20.26 5.74 19.43L14.43 19.43C14.45 19.01 14.45 18.62 14.51 18.21L5.9 18.21L5.9 18.23Z" fill="#83C7BA" fill-opacity="1.000000" fill-rule="nonzero"/>
	<path id="Vector" d="M9.99 22.11C9.72 21.15 8.8 20.42 7.7 20.42C6.38 20.42 5.33 21.44 5.33 22.71C5.33 23.99 6.38 25 7.7 25C8.8 25 9.69 24.28 9.99 23.31L14.53 23.31C14.51 22.92 14.48 22.5 14.45 22.09L9.99 22.09L9.99 22.11Z" fill="#83C7BA" fill-opacity="1.000000" fill-rule="nonzero"/>
	<path id="Vector" d="M4.15 26.41C3.88 25.45 2.97 24.72 1.86 24.72C0.54 24.72 -0.5 25.73 -0.5 27.01C-0.5 28.29 0.54 29.3 1.86 29.3C2.97 29.3 3.85 28.57 4.15 27.61L15.23 27.61C15.13 27.22 15.04 26.8 14.96 26.39L4.15 26.39L4.15 26.41Z" fill="#83C7BA" fill-opacity="1.000000" fill-rule="nonzero"/>
	<path id="Vector" d="M12.65 33.78C12.38 32.82 11.47 32.09 10.36 32.09C9.04 32.09 8 33.11 8 34.38C8 35.66 9.04 36.68 10.36 36.68C11.47 36.68 12.35 35.95 12.65 34.98L18.38 34.98C18.11 34.59 17.87 34.18 17.63 33.76L12.65 33.76L12.65 33.78Z" fill="#83C7BA" fill-opacity="1.000000" fill-rule="nonzero"/>
	<path id="Vector" d="M8.8 29.72C8.54 28.76 7.62 28.03 6.52 28.03C5.2 28.03 4.15 29.04 4.15 30.32C4.15 31.6 5.2 32.61 6.52 32.61C7.62 32.61 8.51 31.88 8.8 30.92L16.18 30.92C16.18 30.92 16.01 30.22 15.85 29.69L8.8 29.69L8.8 29.72Z" fill="#83C7BA" fill-opacity="1.000000" fill-rule="nonzero"/>
	<path id="Vector" d="M27.9 31.94C26.99 31.02 26.07 30.14 25.16 29.28C23.33 27.51 21.47 25.76 19.64 23.96C17.68 22.04 16.55 19.72 16.33 17.01C16.07 13.41 17.28 10.36 19.91 7.84C22.5 5.36 25.05 2.89 27.61 0.39C27.69 0.31 27.74 0.18 27.88 0C28.58 0.7 29.19 1.32 29.81 1.95C32.07 4.14 34.36 6.33 36.57 8.54C38.04 10.03 38.91 11.82 39.28 13.83C39.93 17.4 39.12 20.65 36.62 23.39C35.35 24.8 33.93 26.07 32.58 27.38C31.1 28.81 29.62 30.27 28.14 31.7C28.09 31.78 28.01 31.83 27.9 31.94ZM32.58 9.22C32.42 9.35 32.34 9.43 32.26 9.5C29.6 12.08 26.93 14.69 24.27 17.27C23.28 18.23 22.25 19.22 21.26 20.19C21.15 20.29 21.07 20.52 21.12 20.6C21.69 21.46 22.47 22.09 23.17 22.76C27.04 19.01 30.89 15.29 34.79 11.51C34.09 10.75 33.36 10 32.58 9.22ZM27.85 27.38C28.01 27.25 28.09 27.19 28.14 27.14C29.95 25.4 31.72 23.65 33.53 21.9C35.35 20.13 36.27 18.02 36.13 15.52C36.13 15.34 36.08 15.18 36.05 14.95C35.89 15.08 35.81 15.16 35.73 15.24C33.98 16.93 32.23 18.62 30.46 20.32C28.9 21.83 27.34 23.34 25.78 24.85C25.67 24.95 25.45 25.06 25.67 25.27C26.42 25.94 27.12 26.65 27.85 27.38ZM19.67 17.01C23.19 13.59 26.66 10.26 30.05 6.98C29.36 6.27 28.6 5.54 27.79 4.74C27.74 4.81 27.66 4.94 27.58 5.05C25.8 6.77 24.06 8.49 22.25 10.18C20.8 11.56 19.91 13.18 19.7 15.13C19.62 15.76 19.67 16.38 19.67 17.01Z" fill="#009A59" fill-opacity="1.000000" fill-rule="nonzero"/>
	<path id="Vector" d="M27.9 41.13C25.7 39 23.52 36.89 21.37 34.77C20.37 33.81 19.35 32.85 18.49 31.78C17.17 30.16 16.47 28.26 16.36 26.2C16.31 25.32 16.42 24.41 16.44 23.52C16.44 23.47 16.47 23.39 16.47 23.34C16.47 23.31 16.5 23.31 16.55 23.29C16.68 23.7 16.82 24.12 16.95 24.54C17.6 26.31 18.73 27.77 20.1 29.07C22.58 31.44 25.05 33.84 27.5 36.23C27.61 36.34 27.74 36.44 27.93 36.62C28.5 36.05 29.03 35.5 29.57 34.98C31.75 32.87 33.9 30.76 36.08 28.65C37.53 27.25 38.53 25.6 39.09 23.7C39.12 23.57 39.18 23.44 39.31 23.31C39.36 23.6 39.42 23.86 39.44 24.15C39.71 27.66 38.64 30.74 36.05 33.26C33.45 35.82 30.81 38.37 28.2 40.9C28.09 40.95 28.01 41.03 27.9 41.13Z" fill="#009A59" fill-opacity="1.000000" fill-rule="nonzero"/>
</svg>
