<svg width="20.000000" height="20.000000" viewBox="0 0 20 20" fill="none" xmlns="http://www.w3.org/2000/svg" xmlns:xlink="http://www.w3.org/1999/xlink">
	<desc>
			Created with Pixso.
	</desc>
	<defs/>
	<path id="Vector" d="M0.5 10L1.5 10M9.5 1L9.5 2M17.5 10L18.5 10M3.09 3.6L3.8 4.3M15.9 3.6L15.2 4.3M4.72 11.49C4.41 10.48 4.42 9.41 4.75 8.41C5.08 7.42 5.72 6.55 6.57 5.94C7.42 5.33 8.45 5 9.5 5C10.54 5 11.57 5.33 12.42 5.94C13.27 6.55 13.91 7.42 14.24 8.41C14.57 9.41 14.58 10.48 14.27 11.49C13.95 12.49 13.33 13.37 12.5 14C12.1 14.38 11.81 14.85 11.64 15.38C11.46 15.9 11.41 16.45 11.5 17C11.5 17.53 11.28 18.03 10.91 18.41C10.53 18.78 10.03 19 9.5 19C8.96 19 8.46 18.78 8.08 18.41C7.71 18.03 7.5 17.53 7.5 17C7.58 16.45 7.53 15.9 7.35 15.38C7.18 14.85 6.89 14.38 6.5 14C5.66 13.37 5.04 12.49 4.72 11.49ZM7.19 15L11.8 15" stroke="#000000" stroke-opacity="1.000000" stroke-width="2.000000" stroke-linejoin="round"/>
</svg>
