<svg width="19.000000" height="19.000000" viewBox="0 0 19 19" fill="none" xmlns="http://www.w3.org/2000/svg" xmlns:xlink="http://www.w3.org/1999/xlink">
	<desc>
			Created with Pixso.
	</desc>
	<defs/>
	<path id="Vector" d="M1.15 2.58C1.58 2.21 2.15 2 2.75 2L16.25 2C16.84 2 17.41 2.21 17.84 2.58C18.26 2.96 18.5 3.46 18.5 4L18.5 16C18.5 16.53 18.26 17.03 17.84 17.41C17.41 17.78 16.84 18 16.25 18L2.75 18C2.15 18 1.58 17.78 1.15 17.41C0.73 17.03 0.5 16.53 0.5 16L0.5 4C0.5 3.46 0.73 2.96 1.15 2.58ZM14 0L14 4M5 0L5 4M0.5 8L18.5 8" stroke="#272727" stroke-opacity="1.000000" stroke-width="1.000000" stroke-linejoin="round"/>
</svg>
