<svg width="18.000000" height="20.000000" viewBox="0 0 18 20" fill="none" xmlns="http://www.w3.org/2000/svg" xmlns:xlink="http://www.w3.org/1999/xlink">
	<desc>
			Created with Pixso.
	</desc>
	<defs/>
	<path id="Vector" d="M7.27 0.69C7.66 0.3 8.18 0.08 8.73 0.08C9.28 0.08 9.8 0.3 10.19 0.69C10.57 1.07 10.79 1.6 10.79 2.14C11.97 2.7 12.98 3.57 13.7 4.66C14.43 5.75 14.85 7.01 14.91 8.32L14.91 11.41C14.98 12.05 15.21 12.66 15.57 13.2C15.93 13.73 16.4 14.18 16.97 14.5L0.5 14.5C1.06 14.18 1.53 13.73 1.89 13.2C2.25 12.66 2.48 12.05 2.55 11.41L2.55 8.32C2.62 7.01 3.03 5.75 3.76 4.66C4.48 3.57 5.49 2.7 6.67 2.14C6.67 1.6 6.89 1.07 7.27 0.69ZM5.64 14.5L5.64 15.52C5.64 16.34 5.97 17.13 6.55 17.71C7.13 18.29 7.91 18.61 8.73 18.61C9.55 18.61 10.33 18.29 10.91 17.71C11.49 17.13 11.82 16.34 11.82 15.52L11.82 14.5" stroke="#272727" stroke-opacity="1.000000" stroke-width="1.700000" stroke-linejoin="round" stroke-linecap="round"/>
</svg>
