<svg width="19.000000" height="19.000000" viewBox="0 0 19 19" fill="none" xmlns="http://www.w3.org/2000/svg" xmlns:xlink="http://www.w3.org/1999/xlink">
	<desc>
			Created with Pixso.
	</desc>
	<defs/>
	<path id="Vector" d="M4.85 10.24C5.98 11.36 7.5 12 9.09 12C10.68 12 12.21 11.36 13.34 10.24C14.46 9.11 15.09 7.59 15.09 6C15.09 4.4 14.46 2.88 13.34 1.75C12.21 0.63 10.68 0 9.09 0C7.5 0 5.98 0.63 4.85 1.75C3.73 2.88 3.09 4.4 3.09 6C3.09 7.59 3.73 9.11 4.85 10.24ZM9.09 12L12.49 17.88L14.09 14.65L17.69 14.88L14.29 9M3.9 9L0.5 14.88L4.09 14.65L5.69 17.88L9.09 12" stroke="#272727" stroke-opacity="1.000000" stroke-width="1.000000" stroke-linejoin="round"/>
</svg>
