<svg width="19.000000" height="19.000000" viewBox="0 0 19 19" fill="none" xmlns="http://www.w3.org/2000/svg" xmlns:xlink="http://www.w3.org/1999/xlink">
	<desc>
			Created with Pixso.
	</desc>
	<defs/>
	<path id="Vector" d="M3.67 6.82C4.42 7.57 5.43 8 6.5 8C7.56 8 8.57 7.57 9.32 6.82C10.07 6.07 10.5 5.06 10.5 4C10.5 2.93 10.07 1.92 9.32 1.17C8.57 0.42 7.56 0 6.5 0C5.43 0 4.42 0.42 3.67 1.17C2.92 1.92 2.5 2.93 2.5 4C2.5 5.06 2.92 6.07 3.67 6.82ZM0.5 18L0.5 16C0.5 14.93 0.92 13.92 1.67 13.17C2.42 12.42 3.43 12 4.5 12L8.5 12C9.56 12 10.57 12.42 11.32 13.17C12.07 13.92 12.5 14.93 12.5 16L12.5 18M13.5 0.12C14.36 0.35 15.12 0.85 15.66 1.55C16.21 2.25 16.5 3.11 16.5 4C16.5 4.89 16.21 5.75 15.66 6.45C15.12 7.15 14.36 7.65 13.5 7.87M18.5 18L18.5 16C18.49 15.11 18.19 14.26 17.65 13.56C17.11 12.86 16.35 12.37 15.5 12.14" stroke="#272727" stroke-opacity="1.000000" stroke-width="1.000000" stroke-linejoin="round"/>
</svg>
